<svg width="21.000000" height="20.000000" viewBox="0 0 21 20" fill="none" xmlns="http://www.w3.org/2000/svg" xmlns:xlink="http://www.w3.org/1999/xlink">
	<desc>
			Created with Pixso.
	</desc>
	<defs>
		<clipPath id="clip3_243">
			<rect id="Frame" width="21.000000" height="20.000000" fill="white" fill-opacity="0"/>
		</clipPath>
	</defs>
	<rect id="Frame" width="21.000000" height="20.000000" fill="#FFFFFF" fill-opacity="0"/>
	<g clip-path="url(#clip3_243)">
		<path id="Vector" d="M7.875 3.33331L9.625 7.49997L7.4375 8.74997C8.37463 10.5596 9.91235 12.0242 11.8125 12.9167L13.125 10.8333L17.5 12.5L17.5 15.8333C17.5 16.2753 17.3157 16.6992 16.9874 17.0118C16.6593 17.3244 16.2141 17.5 15.75 17.5C12.3369 17.3024 9.11768 15.9221 6.69971 13.6193C4.28186 11.3165 2.8324 8.25058 2.625 4.99997C2.625 4.55795 2.80933 4.13403 3.13757 3.82147C3.4657 3.50891 3.91089 3.33331 4.375 3.33331L7.875 3.33331Z" stroke="#FFFFFF" stroke-opacity="1.000000" stroke-width="2.000000" stroke-linejoin="round"/>
		<path id="Vector" d="M13.125 5.83334C13.5891 5.83334 14.0343 6.00894 14.3624 6.3215C14.6907 6.63406 14.875 7.05798 14.875 7.5" stroke="#FFFFFF" stroke-opacity="1.000000" stroke-width="2.000000" stroke-linejoin="round" stroke-linecap="round"/>
		<path id="Vector" d="M13.125 2.5C14.5173 2.5 15.8528 3.02679 16.8373 3.96448C17.8219 4.90216 18.375 6.17392 18.375 7.5" stroke="#FFFFFF" stroke-opacity="1.000000" stroke-width="2.000000" stroke-linejoin="round" stroke-linecap="round"/>
	</g>
</svg>
