<svg width="15.000000" height="17.000000" viewBox="0 0 15 17" fill="none" xmlns="http://www.w3.org/2000/svg" xmlns:xlink="http://www.w3.org/1999/xlink">
	<desc>
			Created with Pixso.
	</desc>
	<defs>
		<clipPath id="clip619_425">
			<rect id="Frame" width="15.000000" height="17.000000" fill="white" fill-opacity="0"/>
		</clipPath>
	</defs>
	<rect id="Frame" width="15.000000" height="17.000000" fill="#FFFFFF" fill-opacity="0"/>
	<g clip-path="url(#clip619_425)">
		<path id="Vector" d="M5.625 2.83333L6.875 6.37499L5.3125 7.43749C5.98187 8.97566 7.08032 10.2206 8.4375 10.9792L9.375 9.20833L12.5 10.625L12.5 13.4583C12.5 13.8341 12.3683 14.1944 12.1339 14.4601C11.8995 14.7257 11.5815 14.875 11.25 14.875C8.81201 14.7071 6.51257 13.5338 4.78552 11.5764C3.05841 9.61906 2.02313 7.01302 1.875 4.24999C1.875 3.87428 2.00671 3.51394 2.24109 3.24826C2.47552 2.98258 2.79346 2.83333 3.125 2.83333L5.625 2.83333Z" stroke="#000000" stroke-opacity="1.000000" stroke-width="2.000000" stroke-linejoin="round"/>
		<path id="Vector" d="M9.375 4.95833C9.70654 4.95833 10.0245 5.10758 10.2589 5.37326C10.4933 5.63894 10.625 5.99928 10.625 6.37499" stroke="#000000" stroke-opacity="1.000000" stroke-width="2.000000" stroke-linejoin="round" stroke-linecap="round"/>
		<path id="Vector" d="M9.375 2.125C10.3696 2.125 11.3234 2.57277 12.0267 3.3698C12.7299 4.16682 13.125 5.24783 13.125 6.375" stroke="#000000" stroke-opacity="1.000000" stroke-width="2.000000" stroke-linejoin="round" stroke-linecap="round"/>
	</g>
</svg>
