<svg width="38.000000" height="32.000000" viewBox="0 0 38 32" fill="none" xmlns="http://www.w3.org/2000/svg" xmlns:xlink="http://www.w3.org/1999/xlink">
	<desc>
			Created with Pixso.
	</desc>
	<defs>
		<clipPath id="clip4_1765">
			<rect id="Frame" width="38.000000" height="32.000000" transform="matrix(-1 0 0 1 38 0)" fill="white" fill-opacity="0"/>
		</clipPath>
	</defs>
	<rect id="Frame" width="38.000000" height="32.000000" transform="matrix(-1 0 0 1 38 0)" fill="#FFFFFF" fill-opacity="0"/>
	<g clip-path="url(#clip4_1765)">
		<path id="Vector" d="M18.5361 7.05737C18.2393 6.80737 17.8367 6.66699 17.4167 6.66699C16.9968 6.66699 16.5942 6.80737 16.2974 7.05737L6.79736 15.0574C6.50049 15.3074 6.33374 15.6465 6.33374 16C6.33374 16.3536 6.50049 16.6926 6.79736 16.9427L16.2974 24.9427C16.5959 25.1855 16.9958 25.3199 17.4111 25.3169C17.8262 25.3138 18.2234 25.1737 18.5168 24.9265C18.8105 24.6792 18.9771 24.3448 18.9805 23.9952C18.9841 23.6456 18.8245 23.3088 18.5361 23.0574L11.739 17.3334L30.0835 17.3334C30.5034 17.3334 30.906 17.1929 31.2029 16.9429C31.5 16.6927 31.6667 16.3536 31.6667 16C31.6667 15.6464 31.5 15.3073 31.2029 15.0573C30.906 14.8071 30.5034 14.6667 30.0835 14.6667L11.739 14.6667L18.5361 8.94275C18.833 8.69263 18.9998 8.35364 18.9998 8C18.9998 7.64648 18.833 7.30737 18.5361 7.05737Z" fill="#FFFFFF" fill-opacity="1.000000" fill-rule="nonzero"/>
	</g>
</svg>
