<svg width="25.000244" height="25.000183" viewBox="0 0 25.0002 25.0002" fill="none" xmlns="http://www.w3.org/2000/svg" xmlns:xlink="http://www.w3.org/1999/xlink">
	<desc>
			Created with Pixso.
	</desc>
	<defs/>
	<path id="Vector" d="M24.772 20.0845L17.1876 12.5001L24.772 4.91571C24.8533 4.83447 24.9126 4.73914 24.9501 4.63757C25.0532 4.3595 24.9939 4.03448 24.772 3.81104L21.1892 0.22821C20.9657 0.00476074 20.6407 -0.0545654 20.3625 0.0501099C20.261 0.0875854 20.1658 0.146973 20.0845 0.22821L12.5001 7.81262L4.91577 0.22821C4.83447 0.146973 4.73914 0.0875854 4.63757 0.0501099C4.3595 -0.0530396 4.03442 0.00476074 3.81104 0.22821L0.228271 3.81104C0.00476074 4.03448 -0.0545654 4.3595 0.0500488 4.63757C0.0876465 4.73914 0.146973 4.83447 0.228271 4.91571L7.81262 12.5001L0.228271 20.0845C0.146973 20.1657 0.0876465 20.261 0.0500488 20.3626C-0.0529785 20.6407 0.00476074 20.9657 0.228271 21.1891L3.81104 24.772C4.03442 24.9954 4.3595 25.0548 4.63757 24.9501C4.73914 24.9126 4.83447 24.8532 4.91577 24.772L12.5001 17.1876L20.0845 24.772C20.1658 24.8532 20.261 24.9126 20.3625 24.9501C20.6407 25.0532 20.9657 24.9954 21.1892 24.772L24.772 21.1891C24.9954 20.9657 25.0548 20.6407 24.9501 20.3626C24.9126 20.261 24.8533 20.1657 24.772 20.0845Z" fill="#D73434" fill-opacity="1.000000" fill-rule="nonzero"/>
</svg>
