<svg width="25.333008" height="18.649902" viewBox="0 0 25.333 18.6499" fill="none" xmlns="http://www.w3.org/2000/svg" xmlns:xlink="http://www.w3.org/1999/xlink">
	<desc>
			Created with Pixso.
	</desc>
	<defs/>
	<path id="Vector" d="M13.1306 0.390381C13.4275 0.140381 13.8302 0 14.25 0C14.6698 0 15.0725 0.140381 15.3694 0.390381L24.8694 8.39038C25.1663 8.64038 25.333 8.97949 25.333 9.33301C25.333 9.68665 25.1663 10.0256 24.8694 10.2758L15.3694 18.2758C15.0708 18.5186 14.6709 18.653 14.2557 18.6499C13.8406 18.6469 13.4435 18.5067 13.1499 18.2595C12.8563 18.0122 12.6898 17.6779 12.6862 17.3282C12.6826 16.9786 12.8422 16.6418 13.1306 16.3904L19.9279 10.6664L1.58337 10.6664C1.16345 10.6664 0.76062 10.5259 0.463745 10.2759C0.16687 10.0258 0 9.68665 0 9.33301C0 8.97937 0.16687 8.64026 0.463745 8.39026C0.76062 8.14014 1.16345 7.99976 1.58337 7.99976L19.9279 7.99976L13.1306 2.27576C12.8337 2.02563 12.667 1.68665 12.667 1.33301C12.667 0.979492 12.8337 0.640381 13.1306 0.390381Z" fill="#FFFFFF" fill-opacity="1.000000" fill-rule="nonzero"/>
</svg>
